<?xml version="1.0" encoding="UTF-8"?>
<svg id="Layer_1" xmlns="http://www.w3.org/2000/svg" viewBox="0 0 2431.61 600">
  <defs>
    <style>
      .cls-1 {
        fill: #fff;
      }
    </style>
  </defs>
  <path class="cls-1" d="M176.55,565.75c15.43-3.99,24.28-13.71,26.57-29.14,2.28-15.43-2.29-28.28-13.71-38.57-10.86-10.28-28.28-22.14-52.28-35.57-24-13.42-45.42-25.28-64.28-35.57-18.85-10.28-35.71-24.42-50.57-42.42C7.42,366.48,0,346.92,0,325.77s6-40.13,18-56.99c12-16.85,28.42-29.7,49.28-38.57,20.85-8.85,44.42-13.28,70.71-13.28,24,0,47.42,4.86,70.28,14.57,12.56,5.14,22.42,7,29.57,5.57,7.14-1.42,13.57-6.71,19.28-15.86,1.71-2.28,4.29-3.43,7.71-3.43h2.57c2.28,0,4.29.86,6,2.57s2.57,3.72,2.57,6v105.42c0,5.72-2.87,8.57-8.57,8.57h-.86c-4.58,0-7.43-2.57-8.57-7.71-1.71-14.85-8.57-28.99-20.57-42.42-12-13.42-25.71-23.7-41.14-30.85-15.43-7.14-31.15-11.57-47.14-13.28-16-1.71-29.14,1.43-39.42,9.43-8.01,5.72-12,14.29-12,25.71s12.56,25.15,37.71,41.14c25.14,16,53.7,33.14,85.7,51.42,31.99,18.29,53.14,33.72,63.42,46.28,14.85,17.72,22.28,37.43,22.28,59.14,0,13.71-2.72,27.15-8.14,40.28-5.44,13.15-13.58,25.28-24.43,36.42-10.86,11.14-23.72,20.14-38.57,27-35.43,15.43-106.57,20.27-213.4,14.57-2.29,0-4.29-.86-6-2.57-1.71-1.71-2.57-3.71-2.57-6v-90.85c0-2.85.86-5.14,2.57-6.86,1.71-1.71,3.99-2.57,6.86-2.57h4.29c3.43,0,6,1.43,7.71,4.29,13.14,21.72,28.56,38.57,46.28,50.57,13.14,9.15,28.99,16,47.57,20.57,18.56,4.58,34.42,5.14,47.57,1.71Z"/>
  <path class="cls-1" d="M356.52,122.66c0-9.71-.58-17.85-1.71-24.43-1.15-6.56-3.86-12.99-8.14-19.28-4.29-6.28-10.43-10.85-18.43-13.71-3.43-1.71-5.14-4.57-5.14-8.57v-2.57c0-5.7,2.85-8.85,8.57-9.43,13.71-.56,31.42-7.28,53.14-20.14,21.71-12.86,36.28-20.42,43.71-22.71,9.13-3.43,18-2,26.57,4.29,8.57,5.72,12.86,13.71,12.86,24v255.4c11.42-10.85,24.43-20.85,38.99-30,14.57-9.13,31.14-17.42,49.71-24.85,18.56-7.42,36.13-11.7,52.71-12.86,36.56-3.43,64.71,5.29,84.42,26.14,19.71,20.86,29.57,50.99,29.57,90.42v187.69c.56,14.86,2.57,27,6,36.42s10.85,16.43,22.28,21c3.43,1.71,5.14,4.58,5.14,8.57v2.57c0,5.72-2.87,8.57-8.57,8.57h-160.27c-5.72,0-8.57-2.85-8.57-8.57v-2.57c0-3.99,1.71-6.86,5.14-8.57,10.85-4.57,18.13-11.57,21.85-21,3.71-9.43,5.57-21.56,5.57-36.42v-168.84c0-27.43-4.29-47.99-12.86-61.71-8.57-13.71-19.15-20.7-31.71-21-12.57-.28-25.71,2.44-39.42,8.14-13.71,5.72-26.01,13-36.85,21.86-10.86,8.86-18.57,17.01-23.14,24.42v197.12c0,14.86,1.85,27,5.57,36.42,3.71,9.43,10.99,16.43,21.85,21,3.99,1.71,6,4.58,6,8.57v2.57c0,5.72-3.15,8.57-9.43,8.57h-160.27c-5.72,0-8.57-2.85-8.57-8.57v-2.57c0-3.99,1.71-6.86,5.14-8.57,11.42-4.57,18.99-11.57,22.71-21,3.71-9.43,5.57-21.56,5.57-36.42V122.66Z"/>
  <path class="cls-1" d="M828.74,273.49c37.13-37.13,82.13-55.71,134.98-55.71s97.84,18.57,134.98,55.71c37.13,37.15,55.71,82.14,55.71,134.98s-18.57,97.85-55.71,134.98c-37.15,37.15-82.14,55.71-134.98,55.71s-97.85-18.56-134.98-55.71c-37.15-37.13-55.71-82.13-55.71-134.98s18.56-97.84,55.71-134.98ZM963.29,571.74c22.28.58,41.14-15.13,56.56-47.14,15.43-31.99,23.42-70.56,24-115.7,0-45.13-7.71-83.69-23.14-115.7-15.43-31.99-34.28-48.28-56.57-48.85-21.72,0-40.43,16-56.14,47.99-15.72,32.01-23.57,70.57-23.57,115.7s7.71,83.71,23.14,115.7c15.43,32,33.99,47.99,55.71,47.99Z"/>
  <path class="cls-1" d="M1315.54,224.64v34.28c26.27-19.99,52.56-33.28,78.85-39.85,26.27-6.56,50.27-3.86,71.99,8.14,17.7,10.86,28.28,26.29,31.71,46.28,3.43,20.01-1.15,37.71-13.71,53.14-10.86,13.15-24,22-39.42,26.57-3.43,1.15-6.29.57-8.57-1.72-2.29-2.28-3.15-5.14-2.57-8.57,3.43-18.86-3.72-35.7-21.43-50.57-17.72-14.85-36.85-20.27-57.42-16.28-14.86,2.87-28,10.58-39.42,23.14v221.97c0,7.43.28,13.58.86,18.43.56,4.86,1.85,10.15,3.86,15.85,2,5.72,4.85,10.58,8.57,14.57,3.71,4,8.42,7.15,14.14,9.43,3.99,1.15,6,3.72,6,7.71v2.57c0,1.71-.43,3.29-1.29,4.71-.86,1.43-2.01,2.57-3.43,3.43-1.43.86-3,1.29-4.71,1.29h-159.41c-2.87,0-5.14-.86-6.86-2.57s-2.57-3.99-2.57-6.86v-2.57c0-3.99,2-6.56,6-7.71,10.85-4.57,18.13-11.57,21.85-21,3.71-9.43,5.57-21.85,5.57-37.28v-180.83c0-14.85-1.86-27.13-5.57-36.85-3.72-9.71-11.01-16.85-21.85-21.43-4-1.14-6-3.71-6-7.71v-2.57c0-5.7,2.85-8.85,8.57-9.43,13.71-1.14,34.13-9.71,61.28-25.71,27.13-15.99,49.56-22.85,67.28-20.57,5.14.58,7.71,3.43,7.71,8.57Z"/>
  <path class="cls-1" d="M1561.5,540.03v-275.11c0-6.28-3.15-9.43-9.43-9.43h-28.28c-2.29,0-4.29-.86-6-2.57s-2.57-3.99-2.57-6.86v-20.57c0-5.7,2.85-8.57,8.57-8.57h37.71c14.85,0,27.99-5.14,39.42-15.43,11.42-10.28,18-22.85,19.71-37.71,1.14-5.14,4.28-7.71,9.43-7.71h32.57c2.28,0,4.42.86,6.43,2.57,2,1.71,3,4,3,6.86v41.99c0,6.29,2.85,9.43,8.57,9.43h59.99c2.28,0,4.42.86,6.43,2.57,2,1.71,3,3.72,3,6v20.57c0,2.87-1,5.14-3,6.86-2.01,1.71-4.15,2.57-6.43,2.57h-59.99c-5.72,0-8.57,3.15-8.57,9.43v257.11c0,7.43.43,13.86,1.29,19.28.86,5.44,2.28,11.01,4.29,16.71,1.99,5.72,5.28,10.58,9.86,14.57,4.57,4,10.57,6.86,18,8.57h12c3.99,0,6,2.01,6,6v6c0,4-2.01,6-6,6h-87.42c-40,.56-62.86-19.14-68.56-59.14Z"/>
  <path class="cls-1" d="M2085.99,511.75c-12.57,21.15-31,39.29-55.28,54.42-24.29,15.14-49.85,25.43-76.7,30.85-26.86,5.42-54.29,3.43-82.28-6-28-9.43-50.86-26.42-68.56-50.99-19.43-26.27-31.28-56.7-35.57-91.27-4.29-34.56-1.86-67.41,7.28-98.56,9.13-31.14,24.99-59.27,47.57-84.42,22.56-25.13,49.56-41.42,80.99-48.85,16.56-5.14,34.71-6.56,54.42-4.29,19.71,2.29,38.14,6.57,55.28,12.86,17.14,6.29,31.28,17.14,42.42,32.57,11.14,15.43,16.42,33.72,15.85,54.85-.57,24.57-8.86,44.86-24.85,60.85-16,16-34.86,26.14-56.56,30.43-21.72,4.29-43.15,5.72-64.28,4.29-21.14-1.42-37.71-5.57-49.71-12.43,3.99,38.29,14.28,71.28,30.85,98.99,16.56,27.72,38.27,43.86,65.14,48.42,36,5.14,68.27-9.43,96.85-43.71,2.85-3.99,6.56-4.57,11.14-1.71l3.43,1.71c5.14,2.87,6,6.86,2.57,12ZM1935.15,237.5c-20.57,4-36.14,19.15-46.71,45.42-10.58,26.29-15.29,57.14-14.14,92.56,50.27,5.14,84.85-9.71,103.7-44.57,13.14-24,14.28-47.14,3.43-69.42-9.72-19.42-25.15-27.43-46.28-24Z"/>
  <path class="cls-1" d="M2247.96,224.64v34.28c26.27-19.99,52.56-33.28,78.85-39.85,26.27-6.56,50.27-3.86,71.99,8.14,17.7,10.86,28.28,26.29,31.71,46.28,3.43,20.01-1.15,37.71-13.71,53.14-10.86,13.15-24,22-39.42,26.57-3.43,1.15-6.29.57-8.57-1.72-2.29-2.28-3.15-5.14-2.57-8.57,3.43-18.86-3.72-35.7-21.43-50.57-17.72-14.85-36.85-20.27-57.42-16.28-14.86,2.87-28,10.58-39.42,23.14v221.97c0,7.43.28,13.58.86,18.43.56,4.86,1.85,10.15,3.86,15.85,2,5.72,4.85,10.58,8.57,14.57,3.71,4,8.42,7.15,14.14,9.43,3.99,1.15,6,3.72,6,7.71v2.57c0,1.71-.43,3.29-1.29,4.71-.86,1.43-2.01,2.57-3.43,3.43-1.43.86-3,1.29-4.71,1.29h-159.41c-2.87,0-5.14-.86-6.86-2.57s-2.57-3.99-2.57-6.86v-2.57c0-3.99,2-6.56,6-7.71,10.85-4.57,18.13-11.57,21.85-21,3.71-9.43,5.57-21.85,5.57-37.28v-180.83c0-14.85-1.86-27.13-5.57-36.85-3.72-9.71-11.01-16.85-21.85-21.43-4-1.14-6-3.71-6-7.71v-2.57c0-5.7,2.85-8.85,8.57-9.43,13.71-1.14,34.13-9.71,61.28-25.71,27.13-15.99,49.56-22.85,67.28-20.57,5.14.58,7.71,3.43,7.71,8.57Z"/>
</svg>